G04*
G04 #@! TF.GenerationSoftware,Altium Limited,Altium Designer,25.8.1 (18)*
G04*
G04 Layer_Color=8388736*
%FSLAX44Y44*%
%MOMM*%
G71*
G04*
G04 #@! TF.SameCoordinates,7E0A0718-4DA4-4C9C-962B-CD033E410760*
G04*
G04*
G04 #@! TF.FilePolarity,Negative*
G04*
G01*
G75*
%ADD29R,1.6532X0.8032*%
%ADD30R,1.6532X0.5032*%
%ADD31R,2.9032X1.7032*%
G04:AMPARAMS|DCode=32|XSize=0.4832mm|YSize=1.7632mm|CornerRadius=0.1716mm|HoleSize=0mm|Usage=FLASHONLY|Rotation=0.000|XOffset=0mm|YOffset=0mm|HoleType=Round|Shape=RoundedRectangle|*
%AMROUNDEDRECTD32*
21,1,0.4832,1.4200,0,0,0.0*
21,1,0.1400,1.7632,0,0,0.0*
1,1,0.3432,0.0700,-0.7100*
1,1,0.3432,-0.0700,-0.7100*
1,1,0.3432,-0.0700,0.7100*
1,1,0.3432,0.0700,0.7100*
%
%ADD32ROUNDEDRECTD32*%
G04:AMPARAMS|DCode=33|XSize=0.4832mm|YSize=1.7632mm|CornerRadius=0.1716mm|HoleSize=0mm|Usage=FLASHONLY|Rotation=90.000|XOffset=0mm|YOffset=0mm|HoleType=Round|Shape=RoundedRectangle|*
%AMROUNDEDRECTD33*
21,1,0.4832,1.4200,0,0,90.0*
21,1,0.1400,1.7632,0,0,90.0*
1,1,0.3432,0.7100,0.0700*
1,1,0.3432,0.7100,-0.0700*
1,1,0.3432,-0.7100,-0.0700*
1,1,0.3432,-0.7100,0.0700*
%
%ADD33ROUNDEDRECTD33*%
%ADD34R,1.0032X1.0032*%
%ADD35R,3.4532X2.3532*%
%ADD36R,1.0032X1.0032*%
%ADD37R,0.8032X1.7032*%
%ADD38R,2.7232X2.5032*%
%ADD39R,1.1532X2.3532*%
%ADD40R,1.1032X0.8032*%
%ADD41R,0.8032X1.1032*%
G04:AMPARAMS|DCode=42|XSize=1.4132mm|YSize=0.7932mm|CornerRadius=0.1754mm|HoleSize=0mm|Usage=FLASHONLY|Rotation=0.000|XOffset=0mm|YOffset=0mm|HoleType=Round|Shape=RoundedRectangle|*
%AMROUNDEDRECTD42*
21,1,1.4132,0.4425,0,0,0.0*
21,1,1.0625,0.7932,0,0,0.0*
1,1,0.3507,0.5313,-0.2213*
1,1,0.3507,-0.5313,-0.2213*
1,1,0.3507,-0.5313,0.2213*
1,1,0.3507,0.5313,0.2213*
%
%ADD42ROUNDEDRECTD42*%
%ADD43O,2.3032X1.2532*%
%ADD44C,0.9032*%
%ADD45C,1.4032*%
%ADD46R,1.4032X1.4032*%
%ADD47C,4.2032*%
%ADD48C,0.8032*%
D29*
X1710540Y297700D02*
D03*
Y305700D02*
D03*
Y354700D02*
D03*
Y362700D02*
D03*
D30*
Y327700D02*
D03*
Y322700D02*
D03*
Y317700D02*
D03*
Y312700D02*
D03*
Y332700D02*
D03*
Y337700D02*
D03*
Y342700D02*
D03*
Y347700D02*
D03*
D31*
X1404621Y399441D02*
D03*
Y418441D02*
D03*
D32*
X1448240Y439310D02*
D03*
X1453240D02*
D03*
X1458240D02*
D03*
X1463240D02*
D03*
X1468240D02*
D03*
X1473240D02*
D03*
X1478240D02*
D03*
X1483240D02*
D03*
X1488240D02*
D03*
X1493240D02*
D03*
X1498240D02*
D03*
X1503240D02*
D03*
Y355710D02*
D03*
X1498240D02*
D03*
X1493240D02*
D03*
X1488240D02*
D03*
X1483240D02*
D03*
X1478240D02*
D03*
X1473240D02*
D03*
X1468240D02*
D03*
X1463240D02*
D03*
X1458240D02*
D03*
X1453240D02*
D03*
X1448240D02*
D03*
D33*
X1517540Y425010D02*
D03*
Y420010D02*
D03*
Y415010D02*
D03*
Y410010D02*
D03*
Y405010D02*
D03*
Y400010D02*
D03*
Y395010D02*
D03*
Y390010D02*
D03*
Y385010D02*
D03*
Y380010D02*
D03*
Y375010D02*
D03*
Y370010D02*
D03*
X1433940D02*
D03*
Y375010D02*
D03*
Y380010D02*
D03*
Y385010D02*
D03*
Y390010D02*
D03*
Y395010D02*
D03*
Y400010D02*
D03*
Y405010D02*
D03*
Y410010D02*
D03*
Y415010D02*
D03*
Y420010D02*
D03*
Y425010D02*
D03*
D34*
X1379100Y415290D02*
D03*
X1455300Y459740D02*
D03*
X1505980Y330200D02*
D03*
X1413270Y373380D02*
D03*
X1379100Y396240D02*
D03*
X1413270Y358140D02*
D03*
X1440300Y459740D02*
D03*
X1364100Y415290D02*
D03*
Y396240D02*
D03*
X1490980Y330200D02*
D03*
X1398270Y373380D02*
D03*
Y358140D02*
D03*
D35*
X1732280Y464610D02*
D03*
D36*
X1682750Y463550D02*
D03*
X1531620Y439540D02*
D03*
X1682750Y448550D02*
D03*
X1531620Y454540D02*
D03*
D37*
X1596470Y467580D02*
D03*
Y431580D02*
D03*
X1606470Y467580D02*
D03*
Y431580D02*
D03*
D38*
X1648460Y464170D02*
D03*
Y401970D02*
D03*
D39*
X1732280Y406610D02*
D03*
X1709280D02*
D03*
X1755280D02*
D03*
D40*
X1607820Y391160D02*
D03*
Y376160D02*
D03*
X1548130Y316350D02*
D03*
Y331350D02*
D03*
X1565910Y445770D02*
D03*
Y430770D02*
D03*
X1550670D02*
D03*
Y445770D02*
D03*
X1545590Y372230D02*
D03*
Y387230D02*
D03*
X1565910Y316470D02*
D03*
Y331470D02*
D03*
X1582420Y316350D02*
D03*
Y331350D02*
D03*
X1675130Y314840D02*
D03*
Y299840D02*
D03*
X1681480Y358380D02*
D03*
Y373380D02*
D03*
D41*
X1397270Y342900D02*
D03*
X1412270D02*
D03*
X1470780Y459740D02*
D03*
X1485780D02*
D03*
X1432800Y330200D02*
D03*
X1447800D02*
D03*
X1460620D02*
D03*
X1475620D02*
D03*
D42*
X1635910Y337210D02*
D03*
Y356210D02*
D03*
Y346710D02*
D03*
X1661010Y337210D02*
D03*
Y346710D02*
D03*
Y356210D02*
D03*
D43*
X1719690Y287000D02*
D03*
Y373400D02*
D03*
X1761490Y287000D02*
D03*
Y373400D02*
D03*
D44*
X1724990Y301300D02*
D03*
Y359100D02*
D03*
D45*
X1513520Y485140D02*
D03*
X1493520D02*
D03*
X1422720Y283210D02*
D03*
X1402720D02*
D03*
X1453520Y485140D02*
D03*
X1473520D02*
D03*
X1469400Y283210D02*
D03*
X1489400D02*
D03*
X1509400D02*
D03*
X1529400D02*
D03*
D46*
X1533520Y485140D02*
D03*
X1549400Y283210D02*
D03*
X1442720D02*
D03*
D47*
X1374140Y492760D02*
D03*
X1617980Y287020D02*
D03*
D48*
X1535790Y420010D02*
D03*
X1531620Y467360D02*
D03*
X1666240Y368300D02*
D03*
X1384300Y353060D02*
D03*
X1364100Y373500D02*
D03*
X1430020Y444500D02*
D03*
X1606470Y410130D02*
D03*
X1562100Y406400D02*
D03*
X1541780Y398780D02*
D03*
M02*
