G04*
G04 #@! TF.GenerationSoftware,Altium Limited,Altium Designer,25.8.1 (18)*
G04*
G04 Layer_Color=16711935*
%FSLAX44Y44*%
%MOMM*%
G71*
G04*
G04 #@! TF.SameCoordinates,7E0A0718-4DA4-4C9C-962B-CD033E410760*
G04*
G04*
G04 #@! TF.FilePolarity,Negative*
G04*
G01*
G75*
%ADD43O,2.3032X1.2532*%
%ADD44C,0.9032*%
%ADD45C,1.4032*%
%ADD46R,1.4032X1.4032*%
%ADD47C,4.2032*%
%ADD48C,0.8032*%
D43*
X1719690Y287000D02*
D03*
Y373400D02*
D03*
X1761490Y287000D02*
D03*
Y373400D02*
D03*
D44*
X1724990Y301300D02*
D03*
Y359100D02*
D03*
D45*
X1513520Y485140D02*
D03*
X1493520D02*
D03*
X1422720Y283210D02*
D03*
X1402720D02*
D03*
X1453520Y485140D02*
D03*
X1473520D02*
D03*
X1469400Y283210D02*
D03*
X1489400D02*
D03*
X1509400D02*
D03*
X1529400D02*
D03*
D46*
X1533520Y485140D02*
D03*
X1549400Y283210D02*
D03*
X1442720D02*
D03*
D47*
X1374140Y492760D02*
D03*
X1617980Y287020D02*
D03*
D48*
X1535790Y420010D02*
D03*
X1531620Y467360D02*
D03*
X1666240Y368300D02*
D03*
X1384300Y353060D02*
D03*
X1364100Y373500D02*
D03*
X1430020Y444500D02*
D03*
X1606470Y410130D02*
D03*
X1562100Y406400D02*
D03*
X1541780Y398780D02*
D03*
M02*
