G04*
G04 #@! TF.GenerationSoftware,Altium Limited,Altium Designer,25.8.1 (18)*
G04*
G04 Layer_Color=32896*
%FSLAX44Y44*%
%MOMM*%
G71*
G04*
G04 #@! TF.SameCoordinates,7E0A0718-4DA4-4C9C-962B-CD033E410760*
G04*
G04*
G04 #@! TF.FilePolarity,Positive*
G04*
G01*
G75*
%ADD14C,0.2540*%
D14*
X1511303Y419591D02*
X1513842Y422130D01*
X1518921D01*
X1521460Y419591D01*
Y417052D01*
X1518921Y414513D01*
X1513842D01*
X1511303Y411974D01*
Y409435D01*
X1513842Y406895D01*
X1518921D01*
X1521460Y409435D01*
X1506225Y422130D02*
X1496068D01*
X1501147D01*
Y406895D01*
X1480833Y422130D02*
X1490990D01*
Y406895D01*
X1480833D01*
X1490990Y414513D02*
X1485912D01*
X1465598Y419591D02*
X1468137Y422130D01*
X1473216D01*
X1475755Y419591D01*
Y409435D01*
X1473216Y406895D01*
X1468137D01*
X1465598Y409435D01*
X1521460Y397752D02*
Y382517D01*
X1513842D01*
X1511303Y385056D01*
Y395213D01*
X1513842Y397752D01*
X1521460D01*
X1496068D02*
X1506225D01*
Y382517D01*
X1496068D01*
X1506225Y390135D02*
X1501147D01*
X1490990Y397752D02*
Y382517D01*
X1483372D01*
X1480833Y385056D01*
Y387596D01*
X1483372Y390135D01*
X1490990D01*
X1483372D01*
X1480833Y392674D01*
Y395213D01*
X1483372Y397752D01*
X1490990D01*
X1475755D02*
Y385056D01*
X1473216Y382517D01*
X1468137D01*
X1465598Y385056D01*
Y397752D01*
X1450363Y395213D02*
X1452902Y397752D01*
X1457980D01*
X1460520Y395213D01*
Y385056D01*
X1457980Y382517D01*
X1452902D01*
X1450363Y385056D01*
Y390135D01*
X1455441D01*
X1435128Y395213D02*
X1437667Y397752D01*
X1442746D01*
X1445285Y395213D01*
Y385056D01*
X1442746Y382517D01*
X1437667D01*
X1435128Y385056D01*
Y390135D01*
X1440206D01*
X1419893Y397752D02*
X1430050D01*
Y382517D01*
X1419893D01*
X1430050Y390135D02*
X1424971D01*
X1414814Y382517D02*
Y397752D01*
X1407197D01*
X1404658Y395213D01*
Y390135D01*
X1407197Y387596D01*
X1414814D01*
X1409736D02*
X1404658Y382517D01*
X1521460Y358139D02*
Y373374D01*
X1516382Y368296D01*
X1511303Y373374D01*
Y358139D01*
X1506225D02*
Y368296D01*
X1501147Y373374D01*
X1496068Y368296D01*
Y358139D01*
Y365757D01*
X1506225D01*
X1490990Y358139D02*
Y373374D01*
X1483372D01*
X1480833Y370835D01*
Y365757D01*
X1483372Y363218D01*
X1490990D01*
X1485912D02*
X1480833Y358139D01*
X1475755Y373374D02*
Y358139D01*
Y363218D01*
X1465598Y373374D01*
X1473216Y365757D01*
X1465598Y358139D01*
X1460520Y355600D02*
X1450363D01*
X1445285Y373374D02*
X1440206D01*
X1442746D01*
Y358139D01*
X1445285D01*
X1440206D01*
M02*
