G04*
G04 #@! TF.GenerationSoftware,Altium Limited,Altium Designer,25.8.1 (18)*
G04*
G04 Layer_Physical_Order=1*
G04 Layer_Color=255*
%FSLAX44Y44*%
%MOMM*%
G71*
G04*
G04 #@! TF.SameCoordinates,7E0A0718-4DA4-4C9C-962B-CD033E410760*
G04*
G04*
G04 #@! TF.FilePolarity,Positive*
G04*
G01*
G75*
%ADD10C,0.2000*%
%ADD14C,0.2540*%
%ADD15R,1.4500X0.6000*%
%ADD16R,1.4500X0.3000*%
%ADD17R,2.7000X1.5000*%
G04:AMPARAMS|DCode=18|XSize=0.28mm|YSize=1.56mm|CornerRadius=0.07mm|HoleSize=0mm|Usage=FLASHONLY|Rotation=0.000|XOffset=0mm|YOffset=0mm|HoleType=Round|Shape=RoundedRectangle|*
%AMROUNDEDRECTD18*
21,1,0.2800,1.4200,0,0,0.0*
21,1,0.1400,1.5600,0,0,0.0*
1,1,0.1400,0.0700,-0.7100*
1,1,0.1400,-0.0700,-0.7100*
1,1,0.1400,-0.0700,0.7100*
1,1,0.1400,0.0700,0.7100*
%
%ADD18ROUNDEDRECTD18*%
G04:AMPARAMS|DCode=19|XSize=0.28mm|YSize=1.56mm|CornerRadius=0.07mm|HoleSize=0mm|Usage=FLASHONLY|Rotation=90.000|XOffset=0mm|YOffset=0mm|HoleType=Round|Shape=RoundedRectangle|*
%AMROUNDEDRECTD19*
21,1,0.2800,1.4200,0,0,90.0*
21,1,0.1400,1.5600,0,0,90.0*
1,1,0.1400,0.7100,0.0700*
1,1,0.1400,0.7100,-0.0700*
1,1,0.1400,-0.7100,-0.0700*
1,1,0.1400,-0.7100,0.0700*
%
%ADD19ROUNDEDRECTD19*%
%ADD20R,0.8000X0.8000*%
%ADD21R,3.2500X2.1500*%
%ADD22R,0.8000X0.8000*%
%ADD23R,0.6000X1.5000*%
%ADD24R,2.5200X2.3000*%
%ADD25R,0.9500X2.1500*%
%ADD26R,0.9000X0.6000*%
%ADD27R,0.6000X0.9000*%
G04:AMPARAMS|DCode=28|XSize=1.21mm|YSize=0.59mm|CornerRadius=0.0738mm|HoleSize=0mm|Usage=FLASHONLY|Rotation=0.000|XOffset=0mm|YOffset=0mm|HoleType=Round|Shape=RoundedRectangle|*
%AMROUNDEDRECTD28*
21,1,1.2100,0.4425,0,0,0.0*
21,1,1.0625,0.5900,0,0,0.0*
1,1,0.1475,0.5313,-0.2213*
1,1,0.1475,-0.5313,-0.2213*
1,1,0.1475,-0.5313,0.2213*
1,1,0.1475,0.5313,0.2213*
%
%ADD28ROUNDEDRECTD28*%
%ADD49C,0.3000*%
%ADD50C,0.2500*%
%ADD51C,0.5000*%
%ADD52C,1.0160*%
%ADD53C,0.3810*%
%ADD54C,0.5080*%
%ADD55C,0.7620*%
%ADD56O,2.1000X1.0500*%
%ADD57C,0.7000*%
%ADD58C,1.2000*%
%ADD59R,1.2000X1.2000*%
%ADD60C,4.0000*%
%ADD61C,0.6000*%
D10*
X1517540Y405010D02*
X1517770Y405240D01*
X1517540Y410010D02*
X1517770Y409780D01*
X1634910Y338210D02*
X1635910Y337210D01*
X1634910Y357210D02*
X1635910Y356210D01*
D14*
X1517410Y415140D02*
X1517540Y415010D01*
X1508996Y415140D02*
X1517410D01*
X1506470Y417666D02*
X1508996Y415140D01*
X1506470Y417666D02*
Y429126D01*
X1513520Y436176D01*
Y485140D01*
X1517540Y395010D02*
X1537074D01*
X1540844Y398780D01*
X1541780D01*
X1582420Y331350D02*
Y345610D01*
X1582170Y345860D02*
Y358390D01*
X1535550Y387230D02*
X1553330D01*
X1582170Y345860D02*
X1582420Y345610D01*
X1553330Y387230D02*
X1582170Y358390D01*
X1562680Y333200D02*
Y370042D01*
X1552712Y380010D02*
X1562680Y370042D01*
X1517540Y380010D02*
X1552712D01*
X1562680Y333200D02*
X1564410Y331470D01*
X1517540Y385010D02*
X1533330D01*
X1535550Y387230D01*
X1668170Y356210D02*
X1681480Y342900D01*
X1694180D02*
X1699380Y337700D01*
X1681480Y342900D02*
X1694180D01*
X1661010Y356210D02*
X1668170D01*
X1695730Y347700D02*
X1710540D01*
X1682980Y358380D02*
X1688300Y353060D01*
X1690370D02*
X1695730Y347700D01*
X1688300Y353060D02*
X1690370D01*
X1541310Y375010D02*
X1544090Y372230D01*
X1517540Y375010D02*
X1541310D01*
X1564410Y331470D02*
X1565910D01*
X1544090Y372230D02*
X1545590D01*
X1696920Y317700D02*
X1710540D01*
X1694060Y314840D02*
X1696920Y317700D01*
X1675130Y314840D02*
X1694060D01*
X1681480Y358380D02*
X1682980D01*
X1699380Y337700D02*
X1710540D01*
X1661010Y337210D02*
X1689710D01*
X1694220Y332700D01*
X1710540Y337700D02*
X1721902D01*
X1699478Y322700D02*
X1710540D01*
X1697990Y324188D02*
X1699478Y322700D01*
X1697990Y324188D02*
Y332700D01*
X1710540D01*
X1694220D02*
X1697990D01*
X1710540Y327700D02*
X1721902D01*
X1723390Y329188D01*
Y336212D01*
X1721902Y337700D02*
X1723390Y336212D01*
D15*
X1710540Y297700D02*
D03*
Y305700D02*
D03*
Y354700D02*
D03*
Y362700D02*
D03*
D16*
Y327700D02*
D03*
Y322700D02*
D03*
Y317700D02*
D03*
Y312700D02*
D03*
Y332700D02*
D03*
Y337700D02*
D03*
Y342700D02*
D03*
Y347700D02*
D03*
D17*
X1404621Y399441D02*
D03*
Y418441D02*
D03*
D18*
X1448240Y439310D02*
D03*
X1453240D02*
D03*
X1458240D02*
D03*
X1463240D02*
D03*
X1468240D02*
D03*
X1473240D02*
D03*
X1478240D02*
D03*
X1483240D02*
D03*
X1488240D02*
D03*
X1493240D02*
D03*
X1498240D02*
D03*
X1503240D02*
D03*
Y355710D02*
D03*
X1498240D02*
D03*
X1493240D02*
D03*
X1488240D02*
D03*
X1483240D02*
D03*
X1478240D02*
D03*
X1473240D02*
D03*
X1468240D02*
D03*
X1463240D02*
D03*
X1458240D02*
D03*
X1453240D02*
D03*
X1448240D02*
D03*
D19*
X1517540Y425010D02*
D03*
Y420010D02*
D03*
Y415010D02*
D03*
Y410010D02*
D03*
Y405010D02*
D03*
Y400010D02*
D03*
Y395010D02*
D03*
Y390010D02*
D03*
Y385010D02*
D03*
Y380010D02*
D03*
Y375010D02*
D03*
Y370010D02*
D03*
X1433940D02*
D03*
Y375010D02*
D03*
Y380010D02*
D03*
Y385010D02*
D03*
Y390010D02*
D03*
Y395010D02*
D03*
Y400010D02*
D03*
Y405010D02*
D03*
Y410010D02*
D03*
Y415010D02*
D03*
Y420010D02*
D03*
Y425010D02*
D03*
D20*
X1379100Y415290D02*
D03*
X1455300Y459740D02*
D03*
X1505980Y330200D02*
D03*
X1413270Y373380D02*
D03*
X1379100Y396240D02*
D03*
X1413270Y358140D02*
D03*
X1440300Y459740D02*
D03*
X1364100Y415290D02*
D03*
Y396240D02*
D03*
X1490980Y330200D02*
D03*
X1398270Y373380D02*
D03*
Y358140D02*
D03*
D21*
X1732280Y464610D02*
D03*
D22*
X1682750Y463550D02*
D03*
X1531620Y439540D02*
D03*
X1682750Y448550D02*
D03*
X1531620Y454540D02*
D03*
D23*
X1596470Y467580D02*
D03*
Y431580D02*
D03*
X1606470Y467580D02*
D03*
Y431580D02*
D03*
D24*
X1648460Y464170D02*
D03*
Y401970D02*
D03*
D25*
X1732280Y406610D02*
D03*
X1709280D02*
D03*
X1755280D02*
D03*
D26*
X1607820Y391160D02*
D03*
Y376160D02*
D03*
X1548130Y316350D02*
D03*
Y331350D02*
D03*
X1565910Y445770D02*
D03*
Y430770D02*
D03*
X1550670D02*
D03*
Y445770D02*
D03*
X1545590Y372230D02*
D03*
Y387230D02*
D03*
X1565910Y316470D02*
D03*
Y331470D02*
D03*
X1582420Y316350D02*
D03*
Y331350D02*
D03*
X1675130Y314840D02*
D03*
Y299840D02*
D03*
X1681480Y358380D02*
D03*
Y373380D02*
D03*
D27*
X1397270Y342900D02*
D03*
X1412270D02*
D03*
X1470780Y459740D02*
D03*
X1485780D02*
D03*
X1432800Y330200D02*
D03*
X1447800D02*
D03*
X1460620D02*
D03*
X1475620D02*
D03*
D28*
X1635910Y337210D02*
D03*
Y356210D02*
D03*
Y346710D02*
D03*
X1661010Y337210D02*
D03*
Y346710D02*
D03*
Y356210D02*
D03*
D49*
X1477751Y474349D02*
X1485138Y466962D01*
Y462594D02*
X1485900Y461832D01*
X1485138Y462594D02*
Y466962D01*
X1424800Y384910D02*
X1433840D01*
X1413270Y373380D02*
X1424800Y384910D01*
X1442780Y394910D02*
X1447800Y389890D01*
Y370130D02*
Y389890D01*
X1434040Y394910D02*
X1442780D01*
X1405650Y365760D02*
X1413270Y373380D01*
X1448340Y439410D02*
Y448150D01*
X1448240Y439310D02*
X1448340Y439410D01*
X1517540Y420010D02*
X1535790D01*
X1531620Y454540D02*
Y467360D01*
X1666240Y368300D02*
X1671320Y373380D01*
X1681480D01*
X1617980Y287020D02*
X1626988D01*
X1639808Y299840D01*
X1675130D01*
X1548130Y331350D02*
Y338440D01*
X1533565Y353005D02*
X1548130Y338440D01*
X1520805Y353005D02*
X1533565D01*
X1503680Y370130D02*
X1520805Y353005D01*
X1503680Y370130D02*
Y394890D01*
X1508700Y399910D01*
X1517440D01*
X1517540Y400010D01*
X1469400Y283210D02*
Y285645D01*
X1465580Y289465D02*
X1469400Y285645D01*
X1465580Y289465D02*
Y304800D01*
X1490980Y330200D01*
X1435810Y358140D02*
X1447800Y370130D01*
X1469400Y283210D02*
Y294100D01*
X1498240Y322940D01*
Y355710D01*
X1384300Y353060D02*
X1389380Y358140D01*
X1398270D01*
X1344930Y363220D02*
X1374140D01*
X1376680Y365760D01*
X1405650D01*
X1364100Y373500D02*
X1364160Y373440D01*
X1398210D01*
X1398270Y373380D01*
X1364100Y373500D02*
Y396240D01*
X1430020Y444500D02*
Y449460D01*
X1440300Y459740D01*
X1453520Y485140D02*
X1464311Y474349D01*
X1477751D01*
X1544320Y515620D02*
X1545265Y514675D01*
X1531620Y439540D02*
X1545265Y453185D01*
Y514675D01*
X1523190Y431110D02*
X1531620Y439540D01*
X1523190Y425110D02*
Y431110D01*
X1523090Y425010D02*
X1523190Y425110D01*
X1517540Y425010D02*
X1523090D01*
X1455300Y452367D02*
Y459740D01*
X1453543Y450610D02*
X1455300Y452367D01*
X1445140Y469900D02*
X1455300Y459740D01*
X1450800Y450610D02*
X1453543D01*
X1448340Y448150D02*
X1450800Y450610D01*
X1422400Y469900D02*
X1445140D01*
X1433840Y384910D02*
X1433940Y385010D01*
X1503240Y349510D02*
X1505980Y346770D01*
X1503240Y349510D02*
Y355710D01*
X1505980Y330200D02*
Y346770D01*
X1479900Y287145D02*
X1505980Y313225D01*
Y330200D01*
X1478280Y247650D02*
X1479900Y249270D01*
X1344930Y342900D02*
X1397270D01*
X1479900Y249270D02*
Y287145D01*
X1558290Y417830D02*
X1562100Y414020D01*
Y406400D02*
Y414020D01*
X1558290Y417830D02*
X1564153D01*
X1550670Y419587D02*
Y430770D01*
Y419587D02*
X1552427Y417830D01*
X1558290D01*
X1564153D02*
X1565910Y419587D01*
Y430770D01*
X1433940Y395010D02*
X1434040Y394910D01*
X1435810Y347657D02*
Y358140D01*
X1434052Y345900D02*
X1435810Y347657D01*
X1413270Y358140D02*
X1435810D01*
X1413770Y345900D02*
X1434052D01*
X1413770Y345440D02*
Y345900D01*
X1412270Y343940D02*
X1413770Y345440D01*
X1412270Y342900D02*
Y343940D01*
D50*
X1470660Y450116D02*
Y463026D01*
X1468390Y447846D02*
X1470660Y450116D01*
X1364100Y373500D02*
X1372690Y382090D01*
X1412866D01*
X1420786Y390010D01*
X1433940D01*
X1379100Y396240D02*
X1405890D01*
X1406380Y396730D01*
X1422274D01*
X1425404Y399860D01*
X1433790D01*
X1404621Y418441D02*
X1407048Y416014D01*
X1422890Y407674D02*
Y413530D01*
X1420406Y416014D02*
X1422890Y413530D01*
X1407048Y416014D02*
X1420406D01*
X1401470Y415290D02*
X1404621Y418441D01*
X1379100Y415290D02*
X1401470D01*
X1427540Y405010D02*
X1433940D01*
X1425204Y405360D02*
X1427190D01*
X1427540Y405010D01*
X1422890Y407674D02*
X1425204Y405360D01*
X1430020Y444144D02*
Y444500D01*
Y444144D02*
X1445904Y428260D01*
X1450576D01*
X1453090Y430774D01*
Y439160D01*
X1453240Y439310D01*
X1460620Y302380D02*
Y330200D01*
X1455420Y297180D02*
X1460620Y302380D01*
X1498090Y355860D02*
X1498240Y355710D01*
X1498090Y355860D02*
Y364246D01*
X1495576Y366760D02*
X1498090Y364246D01*
X1485904Y366760D02*
X1495576D01*
X1483390Y364246D02*
X1485904Y366760D01*
X1483390Y355860D02*
Y364246D01*
X1483240Y355710D02*
X1483390Y355860D01*
X1478866Y337950D02*
X1488090Y347174D01*
X1480730Y333450D02*
X1493090Y345810D01*
X1488090Y347174D02*
Y355560D01*
X1493090Y345810D02*
Y355560D01*
X1493240Y355710D01*
X1493520Y485140D02*
X1503240Y475420D01*
Y439310D02*
Y475420D01*
X1433790Y399860D02*
X1433940Y400010D01*
X1548560Y409780D02*
X1591230Y367110D01*
X1546680Y405240D02*
X1586690Y365229D01*
X1517770Y405240D02*
X1546680D01*
X1517770Y409780D02*
X1548560D01*
X1586690Y355330D02*
Y365229D01*
X1591230Y357210D02*
Y367110D01*
Y357210D02*
X1607820D01*
X1586690Y355330D02*
X1603810Y338210D01*
X1634910D01*
X1498600Y457200D02*
Y464096D01*
X1477556Y485140D02*
X1498600Y464096D01*
X1493240Y451840D02*
X1498600Y457200D01*
X1476091Y485140D02*
X1477556D01*
X1473520D02*
X1476091D01*
X1493240Y439310D02*
Y451840D01*
X1468240Y439310D02*
X1468390Y439460D01*
Y447846D01*
X1364100Y396240D02*
Y415290D01*
X1431970Y273960D02*
X1452520D01*
X1422720Y283210D02*
X1431970Y273960D01*
X1452520D02*
X1455420Y276860D01*
Y297180D01*
X1432800Y293130D02*
X1442720Y283210D01*
X1432800Y293130D02*
Y330200D01*
X1453920Y337820D02*
X1456144D01*
X1447800Y331700D02*
X1453920Y337820D01*
X1456144D02*
X1456274Y337950D01*
X1478866D01*
X1477370Y333450D02*
X1480730D01*
X1475620Y331700D02*
X1477370Y333450D01*
X1488090Y355560D02*
X1488240Y355710D01*
X1447800Y330200D02*
Y331700D01*
X1475620Y330200D02*
Y331700D01*
X1607820Y357210D02*
Y376160D01*
Y357210D02*
X1634910D01*
D51*
X1710540Y362700D02*
X1714615D01*
X1715115Y370859D02*
X1717656Y373400D01*
X1714615Y362700D02*
X1715115Y363200D01*
Y370859D01*
X1717656Y373400D02*
X1719690D01*
X1717656Y287000D02*
X1719690D01*
X1715115Y289541D02*
X1717656Y287000D01*
X1715115Y289541D02*
Y297200D01*
X1714615Y297700D02*
X1715115Y297200D01*
X1710540Y297700D02*
X1714615D01*
X1533520Y514980D02*
X1534160Y515620D01*
X1533520Y485140D02*
Y514980D01*
X1617980Y287020D02*
X1646460Y315500D01*
Y341592D01*
X1641792Y346260D02*
X1646460Y341592D01*
X1636360Y346260D02*
X1641792D01*
X1635910Y346710D02*
X1636360Y346260D01*
X1606470Y410130D02*
Y431580D01*
X1681480Y401970D02*
X1682750Y403240D01*
Y448550D01*
X1681480Y401970D02*
X1688450D01*
X1714440Y373400D02*
X1719690D01*
X1700919Y386921D02*
X1714440Y373400D01*
X1700919Y386921D02*
Y389501D01*
X1688450Y401970D02*
X1700919Y389501D01*
X1648460Y401970D02*
X1681480D01*
X1719690Y373400D02*
Y390200D01*
X1709280Y400610D02*
X1719690Y390200D01*
X1709280Y400610D02*
Y406610D01*
D52*
X1534160Y515620D02*
X1544320D01*
X1344930Y363220D02*
Y438548D01*
X1675130Y483870D02*
X1682750D01*
X1666240Y492760D02*
X1675130Y483870D01*
X1682750D02*
X1707520D01*
X1648460Y492760D02*
X1666240D01*
X1648460Y464170D02*
Y492760D01*
X1726780Y464610D02*
X1732280D01*
X1707520Y483870D02*
X1726780Y464610D01*
X1588770Y492760D02*
X1596390D01*
X1565910Y515620D02*
X1588770Y492760D01*
X1596390D02*
X1620520D01*
X1544320Y515620D02*
X1565910D01*
X1620520Y492760D02*
X1648460D01*
X1435100Y515620D02*
X1534160D01*
X1422400Y469900D02*
Y502920D01*
Y461010D02*
Y469900D01*
Y502920D02*
X1435100Y515620D01*
X1405890Y444500D02*
X1422400Y461010D01*
X1350882Y444500D02*
X1405890D01*
X1344930Y438548D02*
X1350882Y444500D01*
X1367790Y247650D02*
X1478280D01*
X1549400D01*
X1344930Y342900D02*
Y363220D01*
Y270510D02*
Y342900D01*
Y270510D02*
X1367790Y247650D01*
D53*
X1607820Y391160D02*
Y398780D01*
X1620520Y411480D01*
X1691640Y383540D02*
X1695450Y379730D01*
X1659890Y383540D02*
X1691640D01*
X1649730Y373380D02*
X1659890Y383540D01*
X1695450Y356932D02*
Y379730D01*
X1596390Y492760D02*
X1596470Y492680D01*
Y467580D02*
Y492680D01*
X1620520Y411480D02*
Y492760D01*
X1489400Y283210D02*
X1522540Y316350D01*
X1548130D01*
X1509400Y283210D02*
X1532016Y305826D01*
X1553766D01*
X1564410Y316470D01*
X1565910D01*
X1529400Y283210D02*
X1546206Y300016D01*
X1564586D01*
X1580920Y316350D01*
X1582420D01*
X1649730Y348942D02*
Y373380D01*
Y348942D02*
X1651962Y346710D01*
X1711635Y306795D02*
X1719035D01*
X1730048Y317808D02*
Y349250D01*
X1719035Y306795D02*
X1730048Y317808D01*
X1710540Y305700D02*
X1711635Y306795D01*
Y353605D02*
X1719035D01*
X1723390Y349250D01*
X1730048D01*
X1710540Y354700D02*
X1711635Y353605D01*
X1651962Y346710D02*
X1661010D01*
X1600139Y454599D02*
X1605375Y459835D01*
X1550670Y452367D02*
X1552902Y454599D01*
X1550670Y445770D02*
Y452367D01*
X1552902Y454599D02*
X1600139D01*
X1605375Y459835D02*
Y466485D01*
X1606470Y467580D01*
X1565910Y445770D02*
X1577643D01*
X1586237Y437175D01*
X1595375D01*
X1596470Y436080D01*
Y431580D02*
Y436080D01*
X1697682Y354700D02*
X1710540D01*
X1695450Y356932D02*
X1697682Y354700D01*
X1755280Y400610D02*
Y406610D01*
X1741242Y386572D02*
X1755280Y400610D01*
X1741242Y360443D02*
Y386572D01*
X1730048Y349250D02*
X1741242Y360443D01*
D54*
X1682750Y463550D02*
Y483870D01*
D55*
X1732280Y406610D02*
Y464610D01*
X1549400Y247650D02*
Y283210D01*
D56*
X1719690Y287000D02*
D03*
Y373400D02*
D03*
X1761490Y287000D02*
D03*
Y373400D02*
D03*
D57*
X1724990Y301300D02*
D03*
Y359100D02*
D03*
D58*
X1513520Y485140D02*
D03*
X1493520D02*
D03*
X1422720Y283210D02*
D03*
X1402720D02*
D03*
X1453520Y485140D02*
D03*
X1473520D02*
D03*
X1469400Y283210D02*
D03*
X1489400D02*
D03*
X1509400D02*
D03*
X1529400D02*
D03*
D59*
X1533520Y485140D02*
D03*
X1549400Y283210D02*
D03*
X1442720D02*
D03*
D60*
X1374140Y492760D02*
D03*
X1617980Y287020D02*
D03*
D61*
X1535790Y420010D02*
D03*
X1531620Y467360D02*
D03*
X1666240Y368300D02*
D03*
X1384300Y353060D02*
D03*
X1364100Y373500D02*
D03*
X1430020Y444500D02*
D03*
X1606470Y410130D02*
D03*
X1562100Y406400D02*
D03*
X1541780Y398780D02*
D03*
M02*
