G04*
G04 #@! TF.GenerationSoftware,Altium Limited,Altium Designer,25.8.1 (18)*
G04*
G04 Layer_Color=8421504*
%FSLAX44Y44*%
%MOMM*%
G71*
G04*
G04 #@! TF.SameCoordinates,7E0A0718-4DA4-4C9C-962B-CD033E410760*
G04*
G04*
G04 #@! TF.FilePolarity,Positive*
G04*
G01*
G75*
%ADD15R,1.4500X0.6000*%
%ADD16R,1.4500X0.3000*%
%ADD17R,2.7000X1.5000*%
G04:AMPARAMS|DCode=18|XSize=0.28mm|YSize=1.56mm|CornerRadius=0.07mm|HoleSize=0mm|Usage=FLASHONLY|Rotation=0.000|XOffset=0mm|YOffset=0mm|HoleType=Round|Shape=RoundedRectangle|*
%AMROUNDEDRECTD18*
21,1,0.2800,1.4200,0,0,0.0*
21,1,0.1400,1.5600,0,0,0.0*
1,1,0.1400,0.0700,-0.7100*
1,1,0.1400,-0.0700,-0.7100*
1,1,0.1400,-0.0700,0.7100*
1,1,0.1400,0.0700,0.7100*
%
%ADD18ROUNDEDRECTD18*%
G04:AMPARAMS|DCode=19|XSize=0.28mm|YSize=1.56mm|CornerRadius=0.07mm|HoleSize=0mm|Usage=FLASHONLY|Rotation=90.000|XOffset=0mm|YOffset=0mm|HoleType=Round|Shape=RoundedRectangle|*
%AMROUNDEDRECTD19*
21,1,0.2800,1.4200,0,0,90.0*
21,1,0.1400,1.5600,0,0,90.0*
1,1,0.1400,0.7100,0.0700*
1,1,0.1400,0.7100,-0.0700*
1,1,0.1400,-0.7100,-0.0700*
1,1,0.1400,-0.7100,0.0700*
%
%ADD19ROUNDEDRECTD19*%
%ADD20R,0.8000X0.8000*%
%ADD21R,3.2500X2.1500*%
%ADD22R,0.8000X0.8000*%
%ADD23R,0.6000X1.5000*%
%ADD24R,2.5200X2.3000*%
%ADD25R,0.9500X2.1500*%
%ADD26R,0.9000X0.6000*%
%ADD27R,0.6000X0.9000*%
G04:AMPARAMS|DCode=28|XSize=1.21mm|YSize=0.59mm|CornerRadius=0.0738mm|HoleSize=0mm|Usage=FLASHONLY|Rotation=0.000|XOffset=0mm|YOffset=0mm|HoleType=Round|Shape=RoundedRectangle|*
%AMROUNDEDRECTD28*
21,1,1.2100,0.4425,0,0,0.0*
21,1,1.0625,0.5900,0,0,0.0*
1,1,0.1475,0.5313,-0.2213*
1,1,0.1475,-0.5313,-0.2213*
1,1,0.1475,-0.5313,0.2213*
1,1,0.1475,0.5313,0.2213*
%
%ADD28ROUNDEDRECTD28*%
D15*
X1710540Y297700D02*
D03*
Y305700D02*
D03*
Y354700D02*
D03*
Y362700D02*
D03*
D16*
Y327700D02*
D03*
Y322700D02*
D03*
Y317700D02*
D03*
Y312700D02*
D03*
Y332700D02*
D03*
Y337700D02*
D03*
Y342700D02*
D03*
Y347700D02*
D03*
D17*
X1404621Y399441D02*
D03*
Y418441D02*
D03*
D18*
X1448240Y439310D02*
D03*
X1453240D02*
D03*
X1458240D02*
D03*
X1463240D02*
D03*
X1468240D02*
D03*
X1473240D02*
D03*
X1478240D02*
D03*
X1483240D02*
D03*
X1488240D02*
D03*
X1493240D02*
D03*
X1498240D02*
D03*
X1503240D02*
D03*
Y355710D02*
D03*
X1498240D02*
D03*
X1493240D02*
D03*
X1488240D02*
D03*
X1483240D02*
D03*
X1478240D02*
D03*
X1473240D02*
D03*
X1468240D02*
D03*
X1463240D02*
D03*
X1458240D02*
D03*
X1453240D02*
D03*
X1448240D02*
D03*
D19*
X1517540Y425010D02*
D03*
Y420010D02*
D03*
Y415010D02*
D03*
Y410010D02*
D03*
Y405010D02*
D03*
Y400010D02*
D03*
Y395010D02*
D03*
Y390010D02*
D03*
Y385010D02*
D03*
Y380010D02*
D03*
Y375010D02*
D03*
Y370010D02*
D03*
X1433940D02*
D03*
Y375010D02*
D03*
Y380010D02*
D03*
Y385010D02*
D03*
Y390010D02*
D03*
Y395010D02*
D03*
Y400010D02*
D03*
Y405010D02*
D03*
Y410010D02*
D03*
Y415010D02*
D03*
Y420010D02*
D03*
Y425010D02*
D03*
D20*
X1379100Y415290D02*
D03*
X1455300Y459740D02*
D03*
X1505980Y330200D02*
D03*
X1413270Y373380D02*
D03*
X1379100Y396240D02*
D03*
X1413270Y358140D02*
D03*
X1440300Y459740D02*
D03*
X1364100Y415290D02*
D03*
Y396240D02*
D03*
X1490980Y330200D02*
D03*
X1398270Y373380D02*
D03*
Y358140D02*
D03*
D21*
X1732280Y464610D02*
D03*
D22*
X1682750Y463550D02*
D03*
X1531620Y439540D02*
D03*
X1682750Y448550D02*
D03*
X1531620Y454540D02*
D03*
D23*
X1596470Y467580D02*
D03*
Y431580D02*
D03*
X1606470Y467580D02*
D03*
Y431580D02*
D03*
D24*
X1648460Y464170D02*
D03*
Y401970D02*
D03*
D25*
X1732280Y406610D02*
D03*
X1709280D02*
D03*
X1755280D02*
D03*
D26*
X1607820Y391160D02*
D03*
Y376160D02*
D03*
X1548130Y316350D02*
D03*
Y331350D02*
D03*
X1565910Y445770D02*
D03*
Y430770D02*
D03*
X1550670D02*
D03*
Y445770D02*
D03*
X1545590Y372230D02*
D03*
Y387230D02*
D03*
X1565910Y316470D02*
D03*
Y331470D02*
D03*
X1582420Y316350D02*
D03*
Y331350D02*
D03*
X1675130Y314840D02*
D03*
Y299840D02*
D03*
X1681480Y358380D02*
D03*
Y373380D02*
D03*
D27*
X1397270Y342900D02*
D03*
X1412270D02*
D03*
X1470780Y459740D02*
D03*
X1485780D02*
D03*
X1432800Y330200D02*
D03*
X1447800D02*
D03*
X1460620D02*
D03*
X1475620D02*
D03*
D28*
X1635910Y337210D02*
D03*
Y356210D02*
D03*
Y346710D02*
D03*
X1661010Y337210D02*
D03*
Y346710D02*
D03*
Y356210D02*
D03*
M02*
