G04*
G04 #@! TF.GenerationSoftware,Altium Limited,Altium Designer,25.8.1 (18)*
G04*
G04 Layer_Physical_Order=2*
G04 Layer_Color=16711680*
%FSLAX44Y44*%
%MOMM*%
G71*
G04*
G04 #@! TF.SameCoordinates,7E0A0718-4DA4-4C9C-962B-CD033E410760*
G04*
G04*
G04 #@! TF.FilePolarity,Positive*
G04*
G01*
G75*
%ADD14C,0.2540*%
%ADD56O,2.1000X1.0500*%
%ADD57C,0.7000*%
%ADD58C,1.2000*%
%ADD59R,1.2000X1.2000*%
%ADD60C,4.0000*%
%ADD61C,0.6000*%
G36*
X1610360Y482600D02*
X1769113D01*
Y382927D01*
X1767113Y381208D01*
X1766740Y381257D01*
X1762760D01*
Y373400D01*
Y365543D01*
X1766740D01*
X1767113Y365592D01*
X1769113Y363873D01*
Y296527D01*
X1767113Y294808D01*
X1766740Y294857D01*
X1762760D01*
Y287000D01*
X1761490D01*
Y285730D01*
X1748550D01*
X1748651Y284966D01*
X1749435Y283071D01*
X1750684Y281444D01*
X1750742Y281400D01*
X1750063Y279400D01*
X1731117D01*
X1730438Y281400D01*
X1730496Y281444D01*
X1731745Y283071D01*
X1732529Y284966D01*
X1732630Y285730D01*
X1719690D01*
X1706750D01*
X1706850Y284966D01*
X1707635Y283071D01*
X1708884Y281444D01*
X1708942Y281400D01*
X1708263Y279400D01*
X1645920D01*
X1625600Y259080D01*
X1348740D01*
Y518160D01*
X1574800D01*
X1610360Y482600D01*
D02*
G37*
%LPC*%
G36*
X1376360Y515300D02*
X1375410D01*
Y494030D01*
X1396680D01*
Y494980D01*
X1395814Y499335D01*
X1394115Y503437D01*
X1391648Y507128D01*
X1388508Y510268D01*
X1384817Y512735D01*
X1380715Y514434D01*
X1376360Y515300D01*
D02*
G37*
G36*
X1372870D02*
X1371920D01*
X1367565Y514434D01*
X1363463Y512735D01*
X1359772Y510268D01*
X1356632Y507128D01*
X1354165Y503437D01*
X1352466Y499335D01*
X1351600Y494980D01*
Y494030D01*
X1372870D01*
Y515300D01*
D02*
G37*
G36*
X1454790Y493641D02*
Y486410D01*
X1462021D01*
X1461478Y488436D01*
X1460354Y490384D01*
X1458764Y491974D01*
X1456816Y493098D01*
X1454790Y493641D01*
D02*
G37*
G36*
X1452250D02*
X1450224Y493098D01*
X1448276Y491974D01*
X1446686Y490384D01*
X1445562Y488436D01*
X1445019Y486410D01*
X1452250D01*
Y493641D01*
D02*
G37*
G36*
X1541520Y493140D02*
X1525520D01*
Y477140D01*
X1541520D01*
Y493140D01*
D02*
G37*
G36*
X1514573D02*
X1512467D01*
X1510432Y492595D01*
X1508608Y491542D01*
X1507118Y490052D01*
X1506065Y488228D01*
X1505520Y486193D01*
Y484087D01*
X1506065Y482052D01*
X1507118Y480228D01*
X1508608Y478738D01*
X1510432Y477685D01*
X1512467Y477140D01*
X1514573D01*
X1516608Y477685D01*
X1518432Y478738D01*
X1519922Y480228D01*
X1520975Y482052D01*
X1521520Y484087D01*
Y486193D01*
X1520975Y488228D01*
X1519922Y490052D01*
X1518432Y491542D01*
X1516608Y492595D01*
X1514573Y493140D01*
D02*
G37*
G36*
X1494573D02*
X1492467D01*
X1490432Y492595D01*
X1488608Y491542D01*
X1487118Y490052D01*
X1486065Y488228D01*
X1485520Y486193D01*
Y484087D01*
X1486065Y482052D01*
X1487118Y480228D01*
X1488608Y478738D01*
X1490432Y477685D01*
X1492467Y477140D01*
X1494573D01*
X1496608Y477685D01*
X1498432Y478738D01*
X1499922Y480228D01*
X1500975Y482052D01*
X1501520Y484087D01*
Y486193D01*
X1500975Y488228D01*
X1499922Y490052D01*
X1498432Y491542D01*
X1496608Y492595D01*
X1494573Y493140D01*
D02*
G37*
G36*
X1474573D02*
X1472467D01*
X1470432Y492595D01*
X1468608Y491542D01*
X1467118Y490052D01*
X1466065Y488228D01*
X1465520Y486193D01*
Y484087D01*
X1466065Y482052D01*
X1467118Y480228D01*
X1468608Y478738D01*
X1470432Y477685D01*
X1472467Y477140D01*
X1474573D01*
X1476608Y477685D01*
X1478432Y478738D01*
X1479922Y480228D01*
X1480975Y482052D01*
X1481520Y484087D01*
Y486193D01*
X1480975Y488228D01*
X1479922Y490052D01*
X1478432Y491542D01*
X1476608Y492595D01*
X1474573Y493140D01*
D02*
G37*
G36*
X1452250Y483870D02*
X1445019D01*
X1445562Y481844D01*
X1446686Y479896D01*
X1448276Y478306D01*
X1450224Y477182D01*
X1452250Y476639D01*
Y483870D01*
D02*
G37*
G36*
X1462021D02*
X1454790D01*
Y476639D01*
X1456816Y477182D01*
X1458764Y478306D01*
X1460354Y479896D01*
X1461478Y481844D01*
X1462021Y483870D01*
D02*
G37*
G36*
X1396680Y491490D02*
X1375410D01*
Y470220D01*
X1376360D01*
X1380715Y471086D01*
X1384817Y472785D01*
X1388508Y475252D01*
X1391648Y478392D01*
X1394115Y482083D01*
X1395814Y486185D01*
X1396680Y490540D01*
Y491490D01*
D02*
G37*
G36*
X1372870D02*
X1351600D01*
Y490540D01*
X1352466Y486185D01*
X1354165Y482083D01*
X1356632Y478392D01*
X1359772Y475252D01*
X1363463Y472785D01*
X1367565Y471086D01*
X1371920Y470220D01*
X1372870D01*
Y491490D01*
D02*
G37*
G36*
X1532890Y472830D02*
Y468630D01*
X1537090D01*
X1536317Y470498D01*
X1534758Y472057D01*
X1532890Y472830D01*
D02*
G37*
G36*
X1530350D02*
X1528482Y472057D01*
X1526923Y470498D01*
X1526150Y468630D01*
X1530350D01*
Y472830D01*
D02*
G37*
G36*
X1537090Y466090D02*
X1532890D01*
Y461890D01*
X1534758Y462663D01*
X1536317Y464222D01*
X1537090Y466090D01*
D02*
G37*
G36*
X1530350D02*
X1526150D01*
X1526923Y464222D01*
X1528482Y462663D01*
X1530350Y461890D01*
Y466090D01*
D02*
G37*
G36*
X1431290Y449970D02*
Y445770D01*
X1435490D01*
X1434717Y447638D01*
X1433158Y449197D01*
X1431290Y449970D01*
D02*
G37*
G36*
X1428750D02*
X1426882Y449197D01*
X1425323Y447638D01*
X1424550Y445770D01*
X1428750D01*
Y449970D01*
D02*
G37*
G36*
X1435490Y443230D02*
X1431290D01*
Y439030D01*
X1433158Y439803D01*
X1434717Y441362D01*
X1435490Y443230D01*
D02*
G37*
G36*
X1428750D02*
X1424550D01*
X1425323Y441362D01*
X1426882Y439803D01*
X1428750Y439030D01*
Y443230D01*
D02*
G37*
G36*
X1537060Y425480D02*
Y421280D01*
X1541260D01*
X1540487Y423148D01*
X1538928Y424707D01*
X1537060Y425480D01*
D02*
G37*
G36*
X1534520D02*
X1532652Y424707D01*
X1531093Y423148D01*
X1530320Y421280D01*
X1534520D01*
Y425480D01*
D02*
G37*
G36*
X1541260Y418740D02*
X1537060D01*
Y414540D01*
X1538928Y415313D01*
X1540487Y416872D01*
X1541260Y418740D01*
D02*
G37*
G36*
X1534520D02*
X1530320D01*
X1531093Y416872D01*
X1532652Y415313D01*
X1534520Y414540D01*
Y418740D01*
D02*
G37*
G36*
X1607740Y415600D02*
Y411400D01*
X1611940D01*
X1611167Y413268D01*
X1609608Y414827D01*
X1607740Y415600D01*
D02*
G37*
G36*
X1605200D02*
X1603332Y414827D01*
X1601773Y413268D01*
X1601000Y411400D01*
X1605200D01*
Y415600D01*
D02*
G37*
G36*
X1611940Y408860D02*
X1607740D01*
Y404660D01*
X1609608Y405433D01*
X1611167Y406992D01*
X1611940Y408860D01*
D02*
G37*
G36*
X1605200D02*
X1601000D01*
X1601773Y406992D01*
X1603332Y405433D01*
X1605200Y404660D01*
Y408860D01*
D02*
G37*
G36*
X1563095Y411400D02*
X1561105D01*
X1559268Y410639D01*
X1558363Y409734D01*
X1549400D01*
X1548124Y409480D01*
X1547043Y408758D01*
X1542065Y403780D01*
X1540785D01*
X1538948Y403019D01*
X1537541Y401612D01*
X1536780Y399775D01*
Y397785D01*
X1537541Y395948D01*
X1538948Y394541D01*
X1540785Y393780D01*
X1542775D01*
X1544612Y394541D01*
X1546019Y395948D01*
X1546780Y397785D01*
Y399065D01*
X1550781Y403066D01*
X1558363D01*
X1559268Y402161D01*
X1561105Y401400D01*
X1563095D01*
X1564932Y402161D01*
X1566339Y403568D01*
X1567100Y405405D01*
Y407395D01*
X1566339Y409232D01*
X1564932Y410639D01*
X1563095Y411400D01*
D02*
G37*
G36*
X1365370Y378970D02*
Y374770D01*
X1369570D01*
X1368797Y376638D01*
X1367238Y378197D01*
X1365370Y378970D01*
D02*
G37*
G36*
X1362830D02*
X1360962Y378197D01*
X1359403Y376638D01*
X1358630Y374770D01*
X1362830D01*
Y378970D01*
D02*
G37*
G36*
X1724940Y381257D02*
X1720960D01*
Y374670D01*
X1732630D01*
X1732529Y375434D01*
X1731745Y377329D01*
X1730496Y378956D01*
X1728869Y380205D01*
X1726974Y380989D01*
X1724940Y381257D01*
D02*
G37*
G36*
X1718420D02*
X1714440D01*
X1712406Y380989D01*
X1710511Y380205D01*
X1708884Y378956D01*
X1707635Y377329D01*
X1706850Y375434D01*
X1706750Y374670D01*
X1718420D01*
Y381257D01*
D02*
G37*
G36*
X1760220D02*
X1756240D01*
X1754206Y380989D01*
X1752311Y380205D01*
X1750684Y378956D01*
X1749435Y377329D01*
X1748651Y375434D01*
X1748550Y374670D01*
X1760220D01*
Y381257D01*
D02*
G37*
G36*
X1667510Y373770D02*
Y369570D01*
X1671710D01*
X1670937Y371438D01*
X1669378Y372997D01*
X1667510Y373770D01*
D02*
G37*
G36*
X1664970D02*
X1663102Y372997D01*
X1661543Y371438D01*
X1660770Y369570D01*
X1664970D01*
Y373770D01*
D02*
G37*
G36*
X1369570Y372230D02*
X1365370D01*
Y368030D01*
X1367238Y368803D01*
X1368797Y370362D01*
X1369570Y372230D01*
D02*
G37*
G36*
X1362830D02*
X1358630D01*
X1359403Y370362D01*
X1360962Y368803D01*
X1362830Y368030D01*
Y372230D01*
D02*
G37*
G36*
X1760220Y372130D02*
X1748550D01*
X1748651Y371366D01*
X1749435Y369471D01*
X1750684Y367844D01*
X1752311Y366595D01*
X1754206Y365811D01*
X1756240Y365543D01*
X1760220D01*
Y372130D01*
D02*
G37*
G36*
X1718420D02*
X1706750D01*
X1706850Y371366D01*
X1707635Y369471D01*
X1708884Y367844D01*
X1710511Y366595D01*
X1712406Y365811D01*
X1714440Y365543D01*
X1718420D01*
Y372130D01*
D02*
G37*
G36*
X1671710Y367030D02*
X1667510D01*
Y362830D01*
X1669378Y363603D01*
X1670937Y365162D01*
X1671710Y367030D01*
D02*
G37*
G36*
X1664970D02*
X1660770D01*
X1661543Y365162D01*
X1663102Y363603D01*
X1664970Y362830D01*
Y367030D01*
D02*
G37*
G36*
X1385570Y358530D02*
Y354330D01*
X1389770D01*
X1388997Y356198D01*
X1387438Y357757D01*
X1385570Y358530D01*
D02*
G37*
G36*
X1383030D02*
X1381162Y357757D01*
X1379603Y356198D01*
X1378830Y354330D01*
X1383030D01*
Y358530D01*
D02*
G37*
G36*
X1732630Y372130D02*
X1720960D01*
Y365543D01*
X1721042D01*
X1721494Y364576D01*
X1721655Y363543D01*
X1720327Y362215D01*
X1719490Y360194D01*
Y358006D01*
X1720327Y355984D01*
X1721875Y354437D01*
X1723896Y353600D01*
X1726084D01*
X1728105Y354437D01*
X1729653Y355984D01*
X1730490Y358006D01*
Y360194D01*
X1729653Y362215D01*
X1728105Y363763D01*
X1727622Y363963D01*
X1727681Y366103D01*
X1728869Y366595D01*
X1730496Y367844D01*
X1731745Y369471D01*
X1732529Y371366D01*
X1732630Y372130D01*
D02*
G37*
G36*
X1389770Y351790D02*
X1385570D01*
Y347590D01*
X1387438Y348363D01*
X1388997Y349922D01*
X1389770Y351790D01*
D02*
G37*
G36*
X1383030D02*
X1378830D01*
X1379603Y349922D01*
X1381162Y348363D01*
X1383030Y347590D01*
Y351790D01*
D02*
G37*
G36*
X1620200Y309560D02*
X1619250D01*
Y288290D01*
X1640520D01*
Y289240D01*
X1639654Y293595D01*
X1637955Y297697D01*
X1635488Y301388D01*
X1632348Y304528D01*
X1628657Y306995D01*
X1624555Y308694D01*
X1620200Y309560D01*
D02*
G37*
G36*
X1616710D02*
X1615760D01*
X1611405Y308694D01*
X1607303Y306995D01*
X1603612Y304528D01*
X1600472Y301388D01*
X1598005Y297697D01*
X1596306Y293595D01*
X1595440Y289240D01*
Y288290D01*
X1616710D01*
Y309560D01*
D02*
G37*
G36*
X1726084Y306800D02*
X1723896D01*
X1721875Y305963D01*
X1720327Y304415D01*
X1719490Y302394D01*
Y300206D01*
X1720327Y298185D01*
X1721655Y296857D01*
X1721494Y295824D01*
X1721042Y294857D01*
X1720960D01*
Y288270D01*
X1732630D01*
X1732529Y289034D01*
X1731745Y290929D01*
X1730496Y292556D01*
X1728869Y293804D01*
X1727681Y294297D01*
X1727622Y296437D01*
X1728105Y296637D01*
X1729653Y298185D01*
X1730490Y300206D01*
Y302394D01*
X1729653Y304415D01*
X1728105Y305963D01*
X1726084Y306800D01*
D02*
G37*
G36*
X1718420Y294857D02*
X1714440D01*
X1712406Y294590D01*
X1710511Y293804D01*
X1708884Y292556D01*
X1707635Y290929D01*
X1706850Y289034D01*
X1706750Y288270D01*
X1718420D01*
Y294857D01*
D02*
G37*
G36*
X1760220D02*
X1756240D01*
X1754206Y294590D01*
X1752311Y293804D01*
X1750684Y292556D01*
X1749435Y290929D01*
X1748651Y289034D01*
X1748550Y288270D01*
X1760220D01*
Y294857D01*
D02*
G37*
G36*
X1470670Y291711D02*
Y284480D01*
X1477901D01*
X1477358Y286506D01*
X1476234Y288454D01*
X1474644Y290044D01*
X1472696Y291168D01*
X1470670Y291711D01*
D02*
G37*
G36*
X1468130Y291711D02*
X1466104Y291168D01*
X1464156Y290044D01*
X1462566Y288454D01*
X1461442Y286506D01*
X1460899Y284480D01*
X1468130D01*
Y291711D01*
D02*
G37*
G36*
X1403990Y291711D02*
Y284480D01*
X1411221D01*
X1410678Y286506D01*
X1409554Y288454D01*
X1407964Y290044D01*
X1406016Y291168D01*
X1403990Y291711D01*
D02*
G37*
G36*
X1401450D02*
X1399424Y291168D01*
X1397476Y290044D01*
X1395886Y288454D01*
X1394762Y286506D01*
X1394219Y284480D01*
X1401450D01*
Y291711D01*
D02*
G37*
G36*
X1557400Y291210D02*
X1541400D01*
Y275210D01*
X1557400D01*
Y291210D01*
D02*
G37*
G36*
X1530453D02*
X1528347D01*
X1526312Y290665D01*
X1524488Y289612D01*
X1522998Y288122D01*
X1521945Y286298D01*
X1521400Y284263D01*
Y282157D01*
X1521945Y280122D01*
X1522998Y278298D01*
X1524488Y276808D01*
X1526312Y275755D01*
X1528347Y275210D01*
X1530453D01*
X1532488Y275755D01*
X1534312Y276808D01*
X1535802Y278298D01*
X1536855Y280122D01*
X1537400Y282157D01*
Y284263D01*
X1536855Y286298D01*
X1535802Y288122D01*
X1534312Y289612D01*
X1532488Y290665D01*
X1530453Y291210D01*
D02*
G37*
G36*
X1510453D02*
X1508347D01*
X1506312Y290665D01*
X1504488Y289612D01*
X1502998Y288122D01*
X1501945Y286298D01*
X1501400Y284263D01*
Y282157D01*
X1501945Y280122D01*
X1502998Y278298D01*
X1504488Y276808D01*
X1506312Y275755D01*
X1508347Y275210D01*
X1510453D01*
X1512488Y275755D01*
X1514312Y276808D01*
X1515802Y278298D01*
X1516855Y280122D01*
X1517400Y282157D01*
Y284263D01*
X1516855Y286298D01*
X1515802Y288122D01*
X1514312Y289612D01*
X1512488Y290665D01*
X1510453Y291210D01*
D02*
G37*
G36*
X1490453D02*
X1488347D01*
X1486312Y290665D01*
X1484488Y289612D01*
X1482998Y288122D01*
X1481945Y286298D01*
X1481400Y284263D01*
Y282157D01*
X1481945Y280122D01*
X1482998Y278298D01*
X1484488Y276808D01*
X1486312Y275755D01*
X1488347Y275210D01*
X1490453D01*
X1492488Y275755D01*
X1494312Y276808D01*
X1495802Y278298D01*
X1496855Y280122D01*
X1497400Y282157D01*
Y284263D01*
X1496855Y286298D01*
X1495802Y288122D01*
X1494312Y289612D01*
X1492488Y290665D01*
X1490453Y291210D01*
D02*
G37*
G36*
X1450720D02*
X1434720D01*
Y275210D01*
X1450720D01*
Y291210D01*
D02*
G37*
G36*
X1423773D02*
X1421667D01*
X1419632Y290665D01*
X1417808Y289612D01*
X1416318Y288122D01*
X1415265Y286298D01*
X1414720Y284263D01*
Y282157D01*
X1415265Y280122D01*
X1416318Y278298D01*
X1417808Y276808D01*
X1419632Y275755D01*
X1421667Y275210D01*
X1423773D01*
X1425808Y275755D01*
X1427632Y276808D01*
X1429122Y278298D01*
X1430175Y280122D01*
X1430720Y282157D01*
Y284263D01*
X1430175Y286298D01*
X1429122Y288122D01*
X1427632Y289612D01*
X1425808Y290665D01*
X1423773Y291210D01*
D02*
G37*
G36*
X1468130Y281940D02*
X1460899D01*
X1461442Y279914D01*
X1462566Y277966D01*
X1464156Y276376D01*
X1466104Y275252D01*
X1468130Y274709D01*
Y281940D01*
D02*
G37*
G36*
X1401450Y281940D02*
X1394219D01*
X1394762Y279914D01*
X1395886Y277966D01*
X1397476Y276376D01*
X1399424Y275252D01*
X1401450Y274709D01*
Y281940D01*
D02*
G37*
G36*
X1411221D02*
X1403990D01*
Y274709D01*
X1406016Y275252D01*
X1407964Y276376D01*
X1409554Y277966D01*
X1410678Y279914D01*
X1411221Y281940D01*
D02*
G37*
G36*
X1477901Y281940D02*
X1470670D01*
Y274709D01*
X1472696Y275252D01*
X1474644Y276376D01*
X1476234Y277966D01*
X1477358Y279914D01*
X1477901Y281940D01*
D02*
G37*
G36*
X1640520Y285750D02*
X1619250D01*
Y264480D01*
X1620200D01*
X1624555Y265346D01*
X1628657Y267045D01*
X1632348Y269512D01*
X1635488Y272652D01*
X1637955Y276343D01*
X1639654Y280445D01*
X1640520Y284800D01*
Y285750D01*
D02*
G37*
G36*
X1616710D02*
X1595440D01*
Y284800D01*
X1596306Y280445D01*
X1598005Y276343D01*
X1600472Y272652D01*
X1603612Y269512D01*
X1607303Y267045D01*
X1611405Y265346D01*
X1615760Y264480D01*
X1616710D01*
Y285750D01*
D02*
G37*
%LPD*%
D14*
X1549400Y406400D02*
X1562100D01*
X1541780Y398780D02*
X1549400Y406400D01*
D56*
X1719690Y287000D02*
D03*
Y373400D02*
D03*
X1761490Y287000D02*
D03*
Y373400D02*
D03*
D57*
X1724990Y301300D02*
D03*
Y359100D02*
D03*
D58*
X1513520Y485140D02*
D03*
X1493520D02*
D03*
X1422720Y283210D02*
D03*
X1402720D02*
D03*
X1453520Y485140D02*
D03*
X1473520D02*
D03*
X1469400Y283210D02*
D03*
X1489400D02*
D03*
X1509400D02*
D03*
X1529400D02*
D03*
D59*
X1533520Y485140D02*
D03*
X1549400Y283210D02*
D03*
X1442720D02*
D03*
D60*
X1374140Y492760D02*
D03*
X1617980Y287020D02*
D03*
D61*
X1535790Y420010D02*
D03*
X1531620Y467360D02*
D03*
X1666240Y368300D02*
D03*
X1384300Y353060D02*
D03*
X1364100Y373500D02*
D03*
X1430020Y444500D02*
D03*
X1606470Y410130D02*
D03*
X1562100Y406400D02*
D03*
X1541780Y398780D02*
D03*
M02*
